HIERARCHY
ROOT pelvis
{
	OFFSET 0.000000 0.000000 0.000000
	CHANNELS 6 Xposition Yposition Zposition Zrotation Xrotation Yrotation
	JOINT lfemur
	{
		OFFSET 11.446000 0.000000 0.000000
		CHANNELS 3 Zrotation Xrotation Yrotation
		JOINT ltibia
		{
			OFFSET 0.000000 -42.030400 0.000000
			CHANNELS 3 Zrotation Xrotation Yrotation
			JOINT lfoot
			{
				OFFSET 0.000000 -39.930200 0.000000
				CHANNELS 3 Zrotation Xrotation Yrotation
				JOINT ltoes
				{
					OFFSET 0.000000 0.000000 11.775800
					CHANNELS 3 Zrotation Xrotation Yrotation
					End Site
					{
					    OFFSET 0.000000 0.000000 5.000000
					}
				}
			}
		}
	}
	JOINT rfemur
	{
		OFFSET -11.446000 0.000000 0.000000
		CHANNELS 3 Zrotation Xrotation Yrotation
		JOINT rtibia
		{
			OFFSET 0.000000 -42.030400 0.000000
			CHANNELS 3 Zrotation Xrotation Yrotation
			JOINT rfoot
			{
				OFFSET 0.000000 -39.930200 0.000000
				CHANNELS 3 Zrotation Xrotation Yrotation
				JOINT rtoes
				{
					OFFSET 0.000000 0.000000 11.775800
					CHANNELS 3 Zrotation Xrotation Yrotation
					End Site
					{
					    OFFSET 0.000000 0.000000 5.000000
					}
				}
			}
		}
	}
	JOINT thorax
	{
		OFFSET 0.000000 11.255600 -5.000000
		CHANNELS 3 Zrotation Xrotation Yrotation
		JOINT head
		{
			OFFSET 0.000000 43.799300 0.000000
			CHANNELS 3 Zrotation Xrotation Yrotation
			End Site
			{
			    OFFSET 0.000000 5.000000 0.000000
			}
		}
		JOINT lclavicle
		{
			OFFSET 0.000000 39.863000 0.000000
			CHANNELS 3 Zrotation Xrotation Yrotation
			JOINT lhumerus
			{
				OFFSET 17.380600 4.958300 0.000000
				CHANNELS 3 Zrotation Xrotation Yrotation
				JOINT lradius
				{
					OFFSET 0.000000 -27.561300 0.000000
					CHANNELS 3 Zrotation Xrotation Yrotation
					JOINT lhand
					{
						OFFSET 0.000000 -26.933000 0.000000
						CHANNELS 3 Zrotation Xrotation Yrotation
						End Site
						{
						    OFFSET 0.000000 -5.000000 0.000000
						}
					}
				}
			}
		}
		JOINT rclavicle
		{
			OFFSET 0.000000 39.863000 0.000000
			CHANNELS 3 Zrotation Xrotation Yrotation
			JOINT rhumerus
			{
				OFFSET -17.380600 4.958300 0.000000
				CHANNELS 3 Zrotation Xrotation Yrotation
				JOINT rradius
				{
					OFFSET 0.000000 -27.561300 0.000000
					CHANNELS 3 Zrotation Xrotation Yrotation
					JOINT rhand
					{
						OFFSET 0.000000 -26.933000 0.000000
						CHANNELS 3 Zrotation Xrotation Yrotation
						End Site
						{
						    OFFSET 0.000000 -5.000000 0.000000
						}
					}
				}
			}
		}
	}
}
MOTION
Frames:	16
Frame Time:	0.0333333
3.26571 85.1055 -46.9678 -4.08976 2.50267 -2.78136 5.11655 -33.8729 -0.0876334 0.380808 44.3775 -0.515452 0.936365 -0.00762717 8.03801 -3.97569e-016 -5 -0 10.7808 5.18131 4.90589 -0.0527933 15.0024 -0.0279377 -5.14666 -6.37888 -8.71823 1.29219e-016 -5 -7.98176e-016 6.08412 7.20257 3.7588 -0.264274 -9.32316 -8.79349 -7.70291e-016 -3.18055e-015 9.93923e-017 9.32165 -1.08131 -15.1882 13.1454 -20.1973 5.30171 -0.189722 -1.73209 -12.4259 -7.70291e-016 -3.18055e-015 9.93923e-017 -11.2716 -8.73167 17.6841 -17.9607 -26.0924 -8.09403 0.0842628 -1.15272 8.23431 
3.27592 84.5926 -42.5624 -4.27206 3.23233 -3.42266 5.06412 -34.865 -2.20068 0.188579 33.2012 -0.347197 0.50069 4.02538 7.91716 3.23025e-016 -5 -0 10.5103 9.88687 4.41175 -0.0371578 10.2301 0.0209296 -4.90318 -6.04161 -8.54719 2.6835e-016 -5 7.98176e-016 6.31985 6.62743 4.96718 -0.188068 -9.46162 -8.6172 -7.95139e-016 -1.59028e-015 1.98785e-016 8.59579 -0.394072 -12.2607 11.888 -18.5168 4.63507 -0.254253 -2.00287 -14.4087 -7.95139e-016 -1.59028e-015 1.98785e-016 -12.3276 -10.1074 19.2827 -18.9413 -27.1882 -8.70404 0.047109 -0.85837 6.12262 
3.25497 84.0155 -37.8693 -4.61878 3.48478 -4.45135 5.41456 -35.2254 -4.6654 0.0966608 24.7012 -0.286975 0.477681 3.99968 8.60504 -1.45982e-016 -5 -0 10.4671 14.5596 4.04664 -0.0259481 6.57579 0.0309755 -4.6735 -5.15575 -7.75453 -3.28004e-016 -5 7.98176e-016 6.72126 6.17438 5.92281 -0.349343 -9.52008 -8.48303 2.73329e-016 -1.59028e-015 -3.97569e-016 7.85767 0.96333 -9.24153 11.0892 -17.4182 4.22654 -0.316756 -2.23219 -16.1012 2.73329e-016 -1.59028e-015 -3.97569e-016 -13.1175 -11.0394 20.3389 -19.7681 -28.0859 -9.22831 0.0423064 -0.81246 5.79396 
3.47609 83.4565 -33.3576 -4.03259 3.53022 -5.32353 4.48532 -35.452 -6.1784 0.0718516 21.6361 -0.266191 -0.43233 2.55526 10.0081 1.98785e-016 -5 -0 9.04859 17.898 4.83305 -0.022122 5.95478 0.0337734 -4.2072 -5.28161 -7.1989 -3.28004e-016 -5 7.98176e-016 5.97502 5.95802 6.85938 -0.160016 -9.45667 -8.52952 -1.49089e-016 3.18055e-015 -1.98785e-016 7.43836 2.03971 -6.9385 10.4767 -16.56 3.92144 -0.364025 -2.39017 -17.2754 -1.49089e-016 3.18055e-015 -1.98785e-016 -13.5458 -11.8339 20.5155 -20.4269 -28.7842 -9.65217 0.0358648 -0.746779 5.32433 
3.74077 83.3148 -29.0096 -3.86411 3.28433 -5.05413 3.71528 -34.8218 -2.49865 0.0857509 22.8931 -0.24719 0.551139 7.03846 4.98975 5.86419e-016 -5 -3.99088e-016 8.33803 20.4648 5.57054 -0.0271471 6.87231 0.0729686 -4.2337 -3.85511 -6.06132 -1.98785e-016 -5 -0 5.89765 6.08535 6.78462 0.135006 -9.52848 -8.59531 3.47873e-016 1.59028e-015 -1.98785e-016 6.90837 2.56481 -5.40943 10.0435 -15.9451 3.71014 -0.390251 -2.47303 -17.8952 3.47873e-016 1.59028e-015 -1.98785e-016 -13.8206 -12.4319 19.6047 -20.6491 -29.0163 -9.79634 0.0302713 -0.683449 4.87199 
4.24872 83.6791 -24.2854 -2.71108 2.50503 -4.68669 1.23816 -33.5515 -2.82905 0.121154 26.7555 -0.247854 0.434475 11.31 3.52604 9.95726e-018 -5 -1.59635e-015 6.8896 19.3772 5.91186 -0.058226 16.0077 0.055809 -3.90021 -3.1964 -5.11892 -0 -5 -0 4.57898 6.22706 6.60051 0.341143 -8.8589 -9.25588 -4.47266e-016 -3.18055e-015 -3.97569e-016 6.6958 3.00362 -3.5933 9.48562 -15.1431 3.4434 -0.463225 -2.68825 -19.5155 -4.47266e-016 -3.18055e-015 -3.97569e-016 -13.3755 -11.6402 17.8785 -21.348 -29.7356 -10.2537 0.0327053 -0.711192 5.07027 
4.86481 84.233 -19.3239 -1.36749 1.49235 -4.43451 -1.07082 -30.9748 -3.04328 0.146334 29.0001 -0.273902 0.595207 12.4412 2.2671 -1.29219e-016 -5 7.98176e-016 5.16053 16.2227 4.68298 -0.153933 29.2917 0.174819 -4.46912 1.25697 -1.92615 5.61571e-016 -5 -3.99088e-016 3.0359 6.66906 6.92478 0.942477 -8.52634 -9.73268 -2.48481e-016 -3.18055e-015 -3.97569e-016 6.83553 2.7703 -2.51665 8.94193 -14.35 3.18953 -0.54398 -2.90645 -21.1726 -2.48481e-016 -3.18055e-015 -3.97569e-016 -12.701 -10.3076 15.482 -21.7575 -30.1494 -10.5243 0.0219441 -0.578627 4.12324 
5.3442 84.9183 -14.261 -0.793435 0.869518 -5.06398 -2.32542 -27.817 -2.38342 0.168236 30.8341 -0.320665 0.587006 10.0196 2.82213 2.6835e-016 -5 7.98176e-016 3.4894 10.1402 3.93744 -0.374586 43.8024 0.608346 -4.4221 13.4301 2.15869 3.47828e-017 -5 3.99088e-016 2.78675 6.62531 7.32357 0.974055 -7.92966 -9.41804 -2.98177e-016 -7.95139e-016 -0 6.37619 2.92483 -2.18812 9.2028 -14.7324 3.31057 -0.55674 -2.93872 -21.4221 -2.98177e-016 -7.95139e-016 -0 -12.3873 -8.70022 14.3542 -22.3125 -30.701 -10.8941 0.0107559 -0.392056 2.79416 
5.94422 85.5009 -9.47575 1.55004 0.035242 -5.4221 -5.32816 -23.3833 -1.95513 0.160348 30.0785 -0.337372 0.622763 7.23171 3.73704 1.98785e-016 -5 -0 0.373108 3.25041 3.22062 -0.806148 57.2451 0.585772 -2.55053 18.3654 3.17548 -2.93221e-016 -5 1.19726e-015 -0.244353 6.90183 7.05373 1.73461 -7.74577 -8.52743 8.19987e-016 -2.38542e-015 -3.97569e-016 7.26156 2.81515 -5.35659 10.1866 -16.1487 3.77955 -0.383392 -2.45173 -17.7347 8.19987e-016 -2.38542e-015 -3.97569e-016 -11.1431 -8.22695 14.2902 -22.1952 -30.5854 -10.8155 0.00862341 -0.348166 2.48094 
6.41894 85.8305 -4.94229 3.20158 -0.710611 -4.99349 -7.57447 -19.2392 -1.43341 0.15154 29.3453 -0.333401 0.823209 4.91864 3.58483 2.63394e-016 -5 -3.99088e-016 -1.90318 -3.20538 0.922566 -1.49952 67.2576 1.33215 -0.858189 12.5145 -1.17959 -0 -5 -0 -2.28607 7.62586 5.70751 2.37599 -7.57387 -7.46575 0 0 -9.93923e-017 8.21348 1.59737 -8.43005 10.7167 -16.898 4.04013 -0.264602 -2.04308 -14.7034 0 0 -9.93923e-017 -10.1497 -8.44942 14.4641 -21.7722 -30.1647 -10.5342 0.0135018 -0.445406 3.17461 
6.58263 85.9639 -0.383132 3.04186 -1.13177 -4.45387 -7.82788 -15.607 -1.01539 0.151405 29.3854 -0.256747 2.40381 1.77589 3.56858 -2.98267e-017 -5 7.98176e-016 -2.01005 -9.35954 -0.99746 -2.23132 72.7323 2.0706 -0.235757 7.66271 -4.13631 -8.29921e-016 -5 -3.99088e-016 -1.80098 7.88271 4.44366 2.0864 -6.90596 -7.32705 -3.72721e-017 0 3.72721e-017 8.79948 -0.00304829 -9.88796 10.8671 -17.1087 4.11503 -0.294535 -2.15387 -15.5209 -3.72721e-017 0 3.72721e-017 -9.42197 -8.04778 13.6252 -21.338 -29.7264 -10.2473 0.0310107 -0.691991 4.93302 
6.89323 85.8456 3.99567 3.51337 -1.02466 -3.24532 -8.79381 -13.0185 -1.23852 0.157963 30.2185 -0.32092 1.75028 -1.78175 3.67036 -2.80786e-016 -5 1.99544e-016 -2.73604 -16.0483 -2.63101 -2.6576 74.868 2.48461 -0.288393 3.17527 -6.03012 -6.56007e-016 -5 1.59635e-015 -1.84305 7.49057 2.57116 1.97021 -6.17673 -7.09216 -3.60297e-016 0 -9.93923e-017 9.59486 -1.76515 -12.0888 10.8168 -17.0379 4.08982 -0.300166 -2.17449 -15.6725 -3.60297e-016 0 -9.93923e-017 -8.60669 -7.0562 11.969 -20.3002 -28.6527 -9.57061 0.0571057 -0.946628 6.75488 
7.17943 85.4847 8.27803 4.29475 -0.924709 -1.24326 -9.97254 -10.5709 -1.44828 0.166778 31.0106 -0.323815 2.00356 -4.6873 3.08829 5.80202e-016 -5 9.9772e-017 -4.0053 -22.0171 -4.54304 -2.39727 73.6689 2.23382 -0.704725 -1.21523 -7.76709 7.25573e-016 -5 -7.98176e-016 -2.45832 7.4571 0.143077 2.15954 -5.72376 -6.88902 -4.96962e-017 1.59028e-015 3.97569e-016 10.7206 -4.392 -14.3458 10.8277 -17.0529 4.09517 -0.307264 -2.19961 -15.8579 -4.96962e-017 1.59028e-015 3.97569e-016 -7.50455 -5.85253 11.1052 -20.3828 -28.7396 -9.62406 0.0375315 -0.76388 5.44685 
7.30494 85.04 12.7908 4.71538 -0.950374 -0.18133 -10.5633 -7.59058 -1.50681 0.17284 31.5033 -0.326293 2.25427 -7.62842 3.30615 -6.61583e-017 -5 2.4943e-017 -4.41377 -26.8096 -4.94384 -1.66142 68.8378 1.53611 -1.3287 -4.68019 -10.7046 7.95139e-016 -5 -0 -2.79215 7.5828 -1.33792 2.2383 -5.3622 -7.02298 -6.4605e-016 -2.38542e-015 3.97569e-016 11.9054 -6.51565 -17.6753 11.5064 -17.9944 4.43825 -0.269702 -2.06203 -14.8438 -6.4605e-016 -2.38542e-015 3.97569e-016 -6.75104 -4.84157 11.1017 -20.4061 -28.764 -9.63902 0.0224056 -0.585057 4.16875 
7.34356 84.9091 17.2367 5.41038 -0.80192 0.818485 -11.0428 -3.45061 -0.889932 0.147612 29.1633 -0.318789 2.2179 -9.05872 2.50517 -1.16784e-016 -5 -1.99544e-016 -5.06125 -30.362 -4.67306 -0.985946 60.8113 0.914313 -1.2927 -3.4063 -13.5488 2.52455e-015 -5 1.59635e-015 -3.70005 7.79826 -2.54611 3.06804 -5.65094 -7.02011 -4.96962e-016 0 1.98785e-016 13.2645 -9.29032 -20.2667 11.7857 -18.3763 4.58182 -0.239774 -1.9458 -13.9889 -4.96962e-016 0 1.98785e-016 -5.85771 -3.95206 10.2075 -19.496 -27.7951 -9.05531 0.0370197 -0.757727 5.40274 
7.2212 84.772 21.6783 5.73499 -0.0486922 1.36729 -11.1165 0.770737 0.131706 0.113193 25.2273 -0.269182 2.41829 -9.72143 2.14942 -2.98177e-016 -5 -0 -5.10705 -33.0949 -3.42717 -0.516571 49.8304 0.508875 -0.479132 0.825705 -15.1495 1.39131e-016 -5 1.59635e-015 -4.22505 7.28981 -3.43988 3.58152 -5.85989 -7.05024 -9.93923e-017 1.59028e-015 -3.97569e-016 14.5872 -11.0707 -23.1946 13.4677 -20.618 5.47685 -0.196539 -1.76288 -12.6507 -9.93923e-017 1.59028e-015 -3.97569e-016 -4.86983 -2.73908 8.99414 -18.7527 -26.9821 -8.58622 0.0579129 -0.952723 6.79868 
